<svg xmlns="http://www.w3.org/2000/svg" xmlns:xlink="http://www.w3.org/1999/xlink" width="1080" zoomAndPan="magnify" viewBox="0 0 810 809.999993" height="1080" preserveAspectRatio="xMidYMid meet" version="1.0"><defs><g/><clipPath id="820c87eb2a"><path d="M 364 569 L 446 569 L 446 789 L 364 789 Z M 364 569 " clip-rule="nonzero"/></clipPath><clipPath id="766a74cb94"><path d="M 0 405 L 405.171875 -0.171875 L 810.34375 405 L 405.171875 810.171875 Z M 0 405 " clip-rule="nonzero"/></clipPath><clipPath id="aaae4bba0c"><path d="M 0 405 L 405.171875 -0.171875 L 810.34375 405 L 405.171875 810.171875 Z M 0 405 " clip-rule="nonzero"/></clipPath><clipPath id="7d8e770e40"><path d="M 0 405 L 405.171875 -0.171875 L 810.34375 405 L 405.171875 810.171875 Z M 0 405 " clip-rule="nonzero"/></clipPath><clipPath id="37aeebacd8"><path d="M 211 106 L 599 106 L 599 546 L 211 546 Z M 211 106 " clip-rule="nonzero"/></clipPath><clipPath id="1baad7d421"><path d="M 0 405 L 405.171875 -0.171875 L 810.34375 405 L 405.171875 810.171875 Z M 0 405 " clip-rule="nonzero"/></clipPath><clipPath id="afaa42d487"><path d="M 0 405 L 405.171875 -0.171875 L 810.34375 405 L 405.171875 810.171875 Z M 0 405 " clip-rule="nonzero"/></clipPath><clipPath id="e7db469900"><path d="M 0 405 L 405.171875 -0.171875 L 810.34375 405 L 405.171875 810.171875 Z M 0 405 " clip-rule="nonzero"/></clipPath><clipPath id="dc645bf33b"><path d="M 268 163 L 390 163 L 390 285 L 268 285 Z M 268 163 " clip-rule="nonzero"/></clipPath><clipPath id="f61c8e5519"><path d="M 0 405 L 405.171875 -0.171875 L 810.34375 405 L 405.171875 810.171875 Z M 0 405 " clip-rule="nonzero"/></clipPath><clipPath id="ce2695320d"><path d="M 0 405 L 405.171875 -0.171875 L 810.34375 405 L 405.171875 810.171875 Z M 0 405 " clip-rule="nonzero"/></clipPath><clipPath id="3fe010b2aa"><path d="M 0 405 L 405.171875 -0.171875 L 810.34375 405 L 405.171875 810.171875 Z M 0 405 " clip-rule="nonzero"/></clipPath><clipPath id="157279f0dc"><rect x="0" width="244" y="0" height="418"/></clipPath></defs><rect x="-81" width="972" fill="#ffffff" y="-80.999999" height="971.999992" fill-opacity="1"/><rect x="-81" width="972" fill="#ffffff" y="-80.999999" height="971.999992" fill-opacity="1"/><g clip-path="url(#820c87eb2a)"><g clip-path="url(#766a74cb94)"><g clip-path="url(#aaae4bba0c)"><g clip-path="url(#7d8e770e40)"><path fill="#000000" d="M 364.535156 569.039062 L 364.523438 747.835938 C 364.535156 770.285156 382.734375 788.488281 405.171875 788.488281 C 427.597656 788.476562 445.800781 770.273438 445.8125 747.851562 L 445.8125 569.039062 Z M 364.535156 569.039062 " fill-opacity="1" fill-rule="nonzero"/></g></g></g></g><g clip-path="url(#37aeebacd8)"><g clip-path="url(#1baad7d421)"><g clip-path="url(#afaa42d487)"><g clip-path="url(#e7db469900)"><path fill="#000000" d="M 405.171875 106.679688 C 298.378906 106.691406 211.503906 193.566406 211.515625 300.335938 C 211.480469 397.539062 283.523438 478.003906 376.992188 491.75 L 376.980469 545.445312 L 433.363281 545.421875 L 433.363281 491.714844 C 526.796875 478.027344 598.851562 397.550781 598.839844 300.347656 C 598.851562 193.554688 511.976562 106.679688 405.171875 106.679688 Z M 558.054688 300.347656 C 558.066406 384.679688 489.480469 453.265625 405.160156 453.242188 C 320.851562 453.253906 252.265625 384.667969 252.265625 300.347656 C 252.277344 216.039062 320.863281 147.453125 405.160156 147.453125 C 489.492188 147.464844 558.066406 216.039062 558.054688 300.347656 Z M 558.054688 300.347656 " fill-opacity="1" fill-rule="nonzero"/></g></g></g></g><g clip-path="url(#dc645bf33b)"><g clip-path="url(#f61c8e5519)"><g clip-path="url(#ce2695320d)"><g clip-path="url(#3fe010b2aa)"><path fill="#000000" d="M 377.078125 163.855469 C 322.53125 175.035156 279.972656 217.5 268.742188 272.046875 C 267.621094 277.570312 271.148438 282.972656 276.648438 284.09375 C 277.34375 284.226562 278.046875 284.296875 278.707031 284.296875 C 283.449219 284.296875 287.695312 280.976562 288.683594 276.171875 C 298.308594 229.605469 334.589844 193.371094 381.179688 183.820312 C 386.714844 182.714844 390.253906 177.300781 389.125 171.8125 C 387.992188 166.324219 382.640625 162.722656 377.078125 163.855469 Z M 377.078125 163.855469 " fill-opacity="1" fill-rule="nonzero"/></g></g></g></g><g transform="matrix(1, 0, 0, 1, 301, 95)"><g clip-path="url(#157279f0dc)"><g fill="#000000" fill-opacity="1"><g transform="translate(0.637801, 306.916962)"><g><path d="M 24.15625 0 L 24.15625 -201.25 L 114.140625 -201.25 C 134.648438 -201.25 150.941406 -196.359375 163.015625 -186.578125 C 175.085938 -176.804688 181.125 -163.679688 181.125 -147.203125 C 181.125 -137.804688 179.015625 -129.273438 174.796875 -121.609375 C 170.578125 -113.941406 164.632812 -107.90625 156.96875 -103.5 C 166.550781 -99.28125 173.976562 -93.050781 179.25 -84.8125 C 184.519531 -76.570312 187.15625 -67.082031 187.15625 -56.34375 C 187.15625 -45.039062 184.28125 -35.171875 178.53125 -26.734375 C 172.78125 -18.304688 164.78125 -11.742188 154.53125 -7.046875 C 144.28125 -2.347656 132.347656 0 118.734375 0 Z M 69.28125 -36.21875 L 111.84375 -36.21875 C 120.84375 -36.21875 127.832031 -38.328125 132.8125 -42.546875 C 137.800781 -46.765625 140.296875 -52.707031 140.296875 -60.375 C 140.296875 -68.039062 137.800781 -73.984375 132.8125 -78.203125 C 127.832031 -82.421875 120.84375 -84.53125 111.84375 -84.53125 L 69.28125 -84.53125 Z M 69.28125 -119.3125 L 107.234375 -119.3125 C 116.054688 -119.3125 122.8125 -121.320312 127.5 -125.34375 C 132.195312 -129.375 134.546875 -135.03125 134.546875 -142.3125 C 134.546875 -149.59375 132.195312 -155.195312 127.5 -159.125 C 122.8125 -163.0625 116.054688 -165.03125 107.234375 -165.03125 L 69.28125 -165.03125 Z M 69.28125 -119.3125 "/></g></g></g><g fill="#000000" fill-opacity="1"><g transform="translate(186.652315, 306.916962)"><g/></g></g></g></g></svg>